<svg width="24" height="24" viewBox="0 0 24 24" fill="none" xmlns="http://www.w3.org/2000/svg">
<g clip-path="url(#clip0_117_752)">
<path d="M11.2529 4.10986C12.0736 4.51754 13.0844 4.19791 13.4941 3.36182H13.4932C13.5599 3.22843 13.6002 3.14078 13.6211 3.03369C13.6415 2.92912 13.6436 2.80859 13.6436 2.61084C13.6436 2.41305 13.6415 2.29257 13.6211 2.18799C13.6002 2.08107 13.5597 1.99386 13.4932 1.86084C13.3135 1.4971 12.9863 1.19132 12.6279 1.05518C12.2824 0.920687 11.8227 0.900877 11.5 1.00537H11.499C11.0417 1.15786 10.7135 1.44255 10.4814 1.88428V1.8833C10.4262 1.985 10.3926 2.0591 10.375 2.16553C10.3582 2.26735 10.3564 2.39785 10.3564 2.61084C10.3564 2.82562 10.3583 2.95488 10.375 3.05615C10.3925 3.16197 10.4267 3.23617 10.4814 3.34131V3.34229C10.6417 3.64489 10.8308 3.85256 11.0918 4.01904L11.2529 4.10986ZM12 3.50244C11.8757 3.50244 11.7321 3.46119 11.5977 3.38916C11.4634 3.31724 11.3436 3.21812 11.2656 3.10889C11.2068 3.0269 11.1826 2.98274 11.1689 2.92432C11.1541 2.86086 11.1514 2.77662 11.1514 2.61084C11.1514 2.4451 11.1541 2.36082 11.1689 2.29736C11.1826 2.23899 11.2068 2.19473 11.2656 2.11279C11.3436 2.00356 11.4634 1.90444 11.5977 1.83252C11.7321 1.7605 11.8757 1.71924 12 1.71924C12.1264 1.71924 12.2475 1.75355 12.3994 1.83154H12.4004C12.5358 1.89927 12.6592 2.00733 12.7334 2.11279H12.7344C12.7932 2.19473 12.8174 2.23899 12.8311 2.29736C12.8459 2.36082 12.8486 2.4451 12.8486 2.61084C12.8486 2.77662 12.8459 2.86086 12.8311 2.92432C12.8174 2.98274 12.7932 3.0269 12.7344 3.10889C12.6564 3.21812 12.5366 3.31724 12.4023 3.38916C12.2679 3.46119 12.1243 3.50244 12 3.50244Z" fill="#AAAAAA" stroke="#AAAAAA" stroke-width="0.15"/>
<path d="M12 10.3989C12.0971 10.3989 12.1835 10.4012 12.2861 10.3638C12.3871 10.3269 12.4994 10.2532 12.6621 10.1157C12.9875 9.84073 13.5438 9.28545 14.665 8.16846C15.2496 7.58822 15.7896 7.04347 16.1885 6.6333C16.3879 6.42824 16.5525 6.25597 16.6699 6.13037C16.7285 6.06772 16.7755 6.01575 16.8096 5.97705C16.8265 5.95786 16.8408 5.94157 16.8516 5.92822L16.8789 5.89014V5.88916C17.152 5.35677 16.9298 4.717 16.3799 4.46729L16.3789 4.46826C16.2828 4.42247 16.2078 4.39245 16.1309 4.37842C16.0919 4.37132 16.0537 4.36886 16.0137 4.36865L15.8857 4.37549C15.8126 4.38281 15.7022 4.41191 15.582 4.45068C15.4601 4.49004 15.3217 4.54086 15.1895 4.59424C15.0573 4.64757 14.9299 4.7043 14.8301 4.75439C14.7803 4.77941 14.736 4.80384 14.7012 4.82568C14.6698 4.84538 14.6355 4.86926 14.6162 4.896V4.89697C14.5273 5.01792 14.5379 5.17014 14.5996 5.28662C14.6617 5.40373 14.7829 5.5004 14.9346 5.50049C14.9602 5.50049 14.9961 5.49276 15.0312 5.48389C15.0693 5.47426 15.1162 5.46019 15.168 5.44385C15.2716 5.41111 15.3988 5.36648 15.5244 5.31885H15.5254C15.6516 5.26857 15.752 5.23164 15.833 5.20752C15.9145 5.18328 15.972 5.17292 16.0146 5.17334C16.055 5.17374 16.0805 5.18351 16.1006 5.19873C16.1223 5.21528 16.1437 5.24339 16.1689 5.29053C16.1936 5.34185 16.2024 5.371 16.2041 5.39404C16.2056 5.41479 16.2008 5.43684 16.1846 5.4751C16.1833 5.47691 16.1821 5.47982 16.1797 5.48291C16.1723 5.49232 16.1612 5.50601 16.1465 5.52295C16.1172 5.55667 16.0744 5.60264 16.0205 5.66064C15.9125 5.77684 15.7591 5.93832 15.5713 6.13232C15.1957 6.52021 14.6842 7.03997 14.126 7.59814C13.1781 8.5439 12.6683 9.04924 12.3789 9.31885C12.2337 9.45414 12.1472 9.52707 12.0898 9.56592C12.0354 9.60281 12.015 9.604 12 9.604C11.985 9.604 11.9643 9.60252 11.9102 9.56592C11.8531 9.52732 11.7668 9.45566 11.623 9.32178C11.3358 9.05434 10.831 8.552 9.8916 7.61475C9.33758 7.06287 8.82776 6.54742 8.45215 6.16162C8.26448 5.96886 8.11006 5.8091 8.00098 5.69287C7.94637 5.63468 7.90329 5.58737 7.87305 5.55322C7.85789 5.53611 7.84591 5.52305 7.83789 5.51318C7.82807 5.5011 7.828 5.49928 7.83008 5.50342L7.8291 5.50146C7.78962 5.42882 7.7968 5.34207 7.83691 5.27197C7.87622 5.20365 7.94229 5.15986 8.01562 5.15771H8.01758C8.02516 5.15994 8.03613 5.16352 8.05078 5.16846C8.0806 5.17851 8.12315 5.19378 8.17676 5.21338C8.28384 5.25252 8.43492 5.3091 8.61816 5.37939C8.98452 5.51993 9.48004 5.71458 10.0166 5.9292H10.0176L11.9727 6.70264L12 6.71338L12.0273 6.70264L13.0244 6.30713L13.417 6.14795C13.54 6.09672 13.6535 6.04858 13.751 6.00537C13.8482 5.9623 13.9302 5.92421 13.9912 5.89404C14.0216 5.87898 14.0483 5.8654 14.0684 5.854C14.0853 5.84436 14.1065 5.83149 14.1201 5.81787C14.1518 5.78616 14.177 5.74534 14.1943 5.70557C14.2115 5.66625 14.2236 5.62098 14.2236 5.57959C14.2235 5.48032 14.1726 5.3816 14.1084 5.31006C14.0452 5.23962 13.9533 5.1783 13.8564 5.17822C13.8386 5.17822 13.8165 5.18255 13.7979 5.18701C13.7767 5.19208 13.7504 5.19957 13.7207 5.2085C13.6612 5.22637 13.5839 5.25242 13.4941 5.28369C13.3143 5.34635 13.082 5.43211 12.8408 5.52686V5.52783L11.9951 5.86084L10.167 5.13232C9.13626 4.72303 8.59641 4.51065 8.26855 4.42432C8.10352 4.38089 7.98517 4.36759 7.88086 4.37939C7.77618 4.39125 7.69151 4.42794 7.59766 4.47217C7.30917 4.60731 7.1062 4.86765 7.02832 5.19287C6.96787 5.44403 6.99739 5.64259 7.12012 5.88818L7.12109 5.89014C7.12772 5.90266 7.13913 5.91671 7.14844 5.92822C7.15923 5.94157 7.17352 5.95786 7.19043 5.97705C7.22452 6.01574 7.2715 6.06772 7.33008 6.13037C7.44752 6.25597 7.61211 6.42824 7.81152 6.6333C8.2104 7.04347 8.75043 7.58822 9.33496 8.16846C10.4562 9.28544 11.0125 9.84073 11.3379 10.1157C11.5006 10.2532 11.6129 10.3269 11.7139 10.3638C11.8165 10.4012 11.9029 10.3989 12 10.3989Z" fill="#AAAAAA" stroke="#AAAAAA" stroke-width="0.15"/>
<path d="M4.52075 16.4839C4.80494 16.9677 5.41831 17.1429 5.91431 16.856L5.91528 16.855C5.93469 16.8434 5.96717 16.8164 6.00415 16.7837C6.04392 16.7485 6.09617 16.7003 6.15942 16.6411C6.28661 16.5221 6.45926 16.3561 6.66431 16.1567C7.07435 15.758 7.61603 15.222 8.1897 14.644H8.19067C9.15471 13.6757 9.67848 13.1456 9.96802 12.8345C10.2548 12.5263 10.3224 12.4221 10.3538 12.3071C10.4223 12.0555 10.3991 11.7634 10.2883 11.5356L10.2893 11.5347C10.2731 11.4993 10.2384 11.4517 10.1975 11.4009C10.1549 11.348 10.1003 11.2845 10.0374 11.2153C9.91105 11.0766 9.74992 10.9111 9.58813 10.7515C9.42647 10.592 9.26302 10.437 9.13013 10.3198C9.06396 10.2615 9.00436 10.212 8.9563 10.1753C8.93229 10.157 8.90925 10.1415 8.88989 10.1294C8.87276 10.1187 8.85127 10.1053 8.82935 10.1001L8.82837 10.1011C8.77291 10.0863 8.71995 10.082 8.66333 10.105C8.61173 10.126 8.56439 10.167 8.51099 10.2183L8.50806 10.2212C8.47003 10.2616 8.43415 10.3089 8.40747 10.355C8.38266 10.3978 8.35864 10.4516 8.35864 10.5005C8.35874 10.525 8.36759 10.5476 8.37524 10.564C8.38364 10.5819 8.39489 10.6013 8.40845 10.6216C8.436 10.6627 8.47654 10.7142 8.52856 10.7749C8.63291 10.8967 8.79021 11.0637 9.00317 11.2788C9.28137 11.5613 9.4343 11.7204 9.51782 11.8247C9.55917 11.8763 9.57981 11.911 9.59106 11.937C9.60141 11.961 9.60474 11.9804 9.60474 12.0044C9.6047 12.0171 9.60291 12.0384 9.5647 12.0942C9.52466 12.1526 9.45044 12.2403 9.31567 12.3853C9.04664 12.6746 8.54653 13.1796 7.62036 14.1079C7.06628 14.662 6.54921 15.1717 6.16333 15.5474C5.97044 15.7352 5.81036 15.8894 5.69458 15.9985C5.63664 16.0532 5.58975 16.0971 5.55591 16.1274C5.53918 16.1424 5.52555 16.1536 5.51587 16.1616C5.50435 16.1712 5.50273 16.1722 5.5061 16.1704C5.48188 16.1833 5.44955 16.1939 5.41821 16.1997C5.38664 16.2055 5.36521 16.2045 5.35669 16.2026C5.31594 16.1882 5.26471 16.1505 5.22192 16.1021C5.20071 16.078 5.18346 16.0536 5.17212 16.0317C5.16208 16.0123 5.15834 15.9986 5.15747 15.9907L5.15845 15.9897C5.16066 15.982 5.16417 15.9707 5.16919 15.9556C5.17921 15.9254 5.19358 15.8825 5.21313 15.8286C5.25219 15.7209 5.30915 15.5699 5.37915 15.3862C5.51914 15.0188 5.71252 14.5218 5.92505 13.9829L6.70337 12.0278L6.71411 11.9995L6.70337 11.9722L5.92505 10.0171C5.71242 9.47799 5.51921 8.9817 5.37915 8.61572C5.3092 8.43293 5.2522 8.28299 5.21313 8.17627C5.19356 8.12281 5.17924 8.08001 5.16919 8.05029C5.16418 8.03546 5.1597 8.02467 5.15747 8.01709C5.15866 7.95947 5.18749 7.90202 5.24731 7.85889L5.31958 7.81982L5.32153 7.81885C5.37128 7.79814 5.39491 7.79361 5.41333 7.79443C5.43118 7.79524 5.45371 7.80232 5.50024 7.82861L5.50415 7.83057C5.50607 7.83184 5.51564 7.83791 5.5354 7.854C5.55578 7.87063 5.58283 7.89427 5.61548 7.92334C5.68091 7.98161 5.76873 8.06242 5.87134 8.15967C6.07636 8.35399 6.34181 8.61354 6.61841 8.89014L7.16333 9.43311C7.30448 9.57169 7.40938 9.67084 7.4895 9.7417C7.64676 9.88076 7.72621 9.92627 7.81958 9.92627C7.92953 9.92617 8.02736 9.88759 8.0979 9.81787C8.16858 9.74788 8.20825 9.65011 8.20825 9.5415C8.20813 9.44777 8.15841 9.3634 8.01294 9.19775C7.86383 9.02799 7.59608 8.7557 7.12427 8.28174C6.82948 7.98695 6.54402 7.70951 6.32153 7.50049C6.21054 7.39622 6.11484 7.30848 6.04126 7.24365C6.00457 7.21132 5.97301 7.18424 5.94751 7.16357C5.92353 7.14415 5.90046 7.12627 5.88306 7.1167L5.8811 7.11572C5.6456 6.99567 5.35433 6.96775 5.1106 7.04736H5.10962C4.65682 7.19843 4.32881 7.64423 4.37134 8.08838L4.39185 8.1792C4.40235 8.21658 4.4166 8.2635 4.43481 8.31885C4.47145 8.43017 4.52345 8.57838 4.58911 8.75732C4.72046 9.11531 4.90735 9.59901 5.13306 10.1665L5.85962 12.0005L5.13306 13.8286C4.90736 14.3982 4.72046 14.8832 4.58911 15.2417C4.52349 15.4208 4.47143 15.5688 4.43481 15.6802C4.41651 15.7358 4.40237 15.7833 4.39185 15.8208C4.3818 15.8566 4.37368 15.8881 4.37134 15.9106V15.9116C4.35706 16.0782 4.3827 16.1947 4.46802 16.3833L4.52075 16.4839Z" fill="#AAAAAA" stroke="#AAAAAA" stroke-width="0.15"/>
<path d="M18.0859 16.856C18.6149 17.1618 19.2781 16.9425 19.5322 16.3833C19.6175 16.1948 19.6432 16.0782 19.6289 15.9116V15.9106C19.6266 15.8881 19.6184 15.8566 19.6084 15.8208C19.5979 15.7833 19.5837 15.7358 19.5654 15.6802C19.5288 15.5689 19.4758 15.4206 19.4102 15.2417C19.3445 15.0628 19.2659 14.8522 19.1748 14.6157L18.8672 13.8325L18.1387 12.0005L18.8672 10.1665C19.0928 9.59918 19.2788 9.11527 19.4102 8.75732C19.4758 8.57838 19.5288 8.43017 19.5654 8.31885C19.5836 8.2635 19.5979 8.21657 19.6084 8.1792L19.6289 8.08838L19.6299 7.97412C19.6223 7.85775 19.5892 7.73518 19.5391 7.62256C19.472 7.47205 19.371 7.32999 19.251 7.23877C18.9833 7.03486 18.611 6.94346 18.3379 7.0249L18.334 7.02588C18.2726 7.04779 18.1603 7.09246 18.0859 7.13428V7.13525C18.0736 7.14201 18.0608 7.1514 18.0518 7.15869C18.0389 7.16911 18.0225 7.18319 18.0039 7.19971C17.9663 7.23305 17.916 7.28036 17.8545 7.33838C17.7314 7.45446 17.5621 7.61752 17.3594 7.81592C16.9535 8.21314 16.4113 8.75213 15.8311 9.33447C14.7141 10.4557 14.1588 11.012 13.8838 11.3374C13.7463 11.5001 13.6726 11.6124 13.6357 11.7134C13.5983 11.816 13.6006 11.9024 13.6006 11.9995C13.6006 12.0966 13.5977 12.1834 13.6348 12.2856C13.6713 12.3863 13.7447 12.4973 13.8809 12.6587C14.1531 12.9814 14.7028 13.533 15.8096 14.644C16.3834 15.2221 16.9258 15.7579 17.3359 16.1567C17.5409 16.3561 17.7127 16.5221 17.8398 16.6411C17.9033 16.7005 17.9562 16.7484 17.9961 16.7837C18.0332 16.8165 18.0656 16.8435 18.085 16.855L18.0859 16.856ZM18.5811 16.1997C18.5497 16.1938 18.5173 16.1833 18.4932 16.1704C18.4971 16.1725 18.4955 16.1716 18.4834 16.1616C18.4737 16.1535 18.4601 16.1424 18.4434 16.1274C18.4095 16.0971 18.3636 16.0532 18.3057 15.9985C18.19 15.8894 18.0296 15.7352 17.8369 15.5474C17.4516 15.1717 16.9365 14.6618 16.3848 14.1079C15.4475 13.1685 14.9452 12.6637 14.6777 12.3765C14.5438 12.2326 14.4722 12.1464 14.4336 12.0894C14.397 12.0352 14.3955 12.0146 14.3955 11.9995C14.3955 11.9841 14.3969 11.9631 14.4326 11.9097C14.4705 11.8531 14.5416 11.7679 14.6738 11.6255C14.938 11.341 15.4346 10.8412 16.3633 9.9126C17.2613 9.01025 17.8024 8.47142 18.1328 8.15869C18.2981 8.00228 18.4091 7.90416 18.4844 7.84521C18.5221 7.81569 18.5495 7.79794 18.5684 7.7876C18.5886 7.77651 18.5924 7.77783 18.5869 7.77783C18.5825 7.77781 18.5823 7.77704 18.5889 7.77881C18.5945 7.78036 18.6028 7.78287 18.6123 7.78662C18.6318 7.79433 18.6561 7.80568 18.6787 7.81885L18.6826 7.82178C18.7843 7.87272 18.8352 7.95217 18.8408 8.01025C18.8386 8.01793 18.8358 8.02905 18.8311 8.04346C18.821 8.07361 18.8057 8.11651 18.7861 8.17041C18.7471 8.27814 18.6911 8.42994 18.6211 8.61377C18.4811 8.98128 18.2878 9.47817 18.0752 10.0171L17.2969 11.9722L17.2861 11.9995L17.2969 12.0278L18.0752 13.9829C18.2877 14.5217 18.4811 15.0188 18.6211 15.3862C18.691 15.5698 18.7471 15.721 18.7861 15.8286C18.8057 15.8826 18.821 15.9254 18.8311 15.9556C18.8361 15.9707 18.8396 15.982 18.8418 15.9897V15.9907C18.8409 15.9986 18.8381 16.0124 18.8281 16.0317C18.8168 16.0536 18.7995 16.0781 18.7783 16.1021C18.7353 16.1507 18.6834 16.1884 18.6426 16.2026C18.6336 16.2043 18.6119 16.2054 18.5811 16.1997Z" fill="#AAAAAA" stroke="#AAAAAA" stroke-width="0.15"/>
<path d="M2.61108 13.6646C3.36957 13.6646 3.98397 13.2178 4.20874 12.4985C4.32055 12.1405 4.32055 11.8585 4.20874 11.5005C3.97965 10.7728 3.36553 10.3317 2.59839 10.3403V10.3394C2.50601 10.3394 2.40922 10.3435 2.32788 10.3501C2.24915 10.3565 2.17756 10.3656 2.1394 10.3765H2.13843C1.59391 10.543 1.15848 10.9879 0.996826 11.5444C0.902361 11.8728 0.907004 12.1594 1.0144 12.4995C1.23931 13.2183 1.85294 13.6644 2.61108 13.6646ZM2.61597 12.8481C2.45796 12.8481 2.37231 12.8447 2.30737 12.8306C2.24661 12.8174 2.20022 12.7952 2.12378 12.7456C1.97173 12.6442 1.85195 12.4779 1.78394 12.2935C1.71598 12.1091 1.70315 11.9132 1.75464 11.7524L1.78784 11.6685C1.87701 11.474 2.03959 11.2928 2.19897 11.2114H2.198C2.27094 11.175 2.32468 11.1553 2.38843 11.145C2.45404 11.1345 2.53345 11.134 2.65894 11.1382C2.78982 11.1446 2.86636 11.1527 2.92749 11.1704C2.98632 11.1875 3.03556 11.2143 3.11011 11.2661C3.21898 11.3441 3.31768 11.4633 3.3894 11.5972C3.46143 11.7316 3.50269 11.8752 3.50269 11.9995C3.50269 12.1238 3.46143 12.2674 3.3894 12.4019C3.31768 12.5357 3.21898 12.6549 3.11011 12.7329L3.00854 12.7974C2.97979 12.8126 2.95397 12.8225 2.92456 12.8296C2.86181 12.8448 2.7787 12.8481 2.61597 12.8481Z" fill="#AAAAAA" stroke="#AAAAAA" stroke-width="0.15"/>
<path d="M21.3884 13.6646C22.1469 13.6646 22.7613 13.2178 22.9861 12.4985C23.0979 12.1405 23.0979 11.8585 22.9861 11.5005C22.757 10.7728 22.1429 10.3317 21.3757 10.3403V10.3394C21.2834 10.3394 21.1866 10.3435 21.1052 10.3501C21.0265 10.3565 20.9549 10.3656 20.9167 10.3765H20.9158C20.3713 10.543 19.9358 10.9879 19.7742 11.5444C19.6797 11.8728 19.6843 12.1594 19.7917 12.4995C20.0167 13.2183 20.6303 13.6644 21.3884 13.6646ZM21.3933 12.8481C21.2353 12.8481 21.1497 12.8447 21.0847 12.8306C21.024 12.8174 20.9776 12.7952 20.9011 12.7456C20.7491 12.6442 20.6293 12.4779 20.5613 12.2935C20.4933 12.1091 20.4805 11.9132 20.532 11.7524L20.5652 11.6685C20.6544 11.474 20.8169 11.2928 20.9763 11.2114H20.9753C21.0483 11.175 21.102 11.1553 21.1658 11.145C21.2314 11.1345 21.3108 11.134 21.4363 11.1382C21.5672 11.1446 21.6437 11.1527 21.7048 11.1704C21.7637 11.1875 21.8129 11.2143 21.8875 11.2661C21.9963 11.3441 22.095 11.4633 22.1667 11.5972C22.2388 11.7316 22.28 11.8752 22.28 11.9995C22.28 12.1238 22.2388 12.2674 22.1667 12.4019C22.095 12.5357 21.9963 12.6549 21.8875 12.7329L21.7859 12.7974C21.7571 12.8126 21.7313 12.8225 21.7019 12.8296C21.6392 12.8448 21.556 12.8481 21.3933 12.8481Z" fill="#AAAAAA" stroke="#AAAAAA" stroke-width="0.15"/>
<path d="M15.9934 19.6316C16.1304 19.6286 16.2579 19.5925 16.3977 19.5271C16.9305 19.2769 17.1474 18.6373 16.8792 18.1101V18.1091C16.8725 18.0966 16.8612 18.0826 16.8518 18.071C16.841 18.0576 16.8268 18.0406 16.8098 18.0212C16.7758 17.9826 16.7285 17.9313 16.6702 17.8689C16.5527 17.7433 16.3881 17.571 16.1887 17.366C15.9892 17.1608 15.7543 16.922 15.4963 16.6619L14.6653 15.8308C13.7614 14.929 13.2245 14.3998 12.8948 14.0906C12.7301 13.9361 12.6151 13.8347 12.5315 13.7693C12.4495 13.7051 12.3912 13.67 12.3391 13.655C12.1156 13.5912 11.8558 13.5911 11.635 13.6599C11.6078 13.668 11.5776 13.6859 11.5481 13.7068C11.5165 13.7291 11.4777 13.7599 11.4309 13.7996C11.3371 13.8791 11.2071 13.998 11.0315 14.1648C10.8555 14.332 10.6323 14.5484 10.3528 14.823L9.33521 15.8308C8.75067 16.4111 8.21065 16.9558 7.81177 17.366C7.61235 17.571 7.44776 17.7433 7.33032 17.8689C7.27195 17.9313 7.22474 17.9826 7.19067 18.0212C7.1737 18.0405 7.1595 18.0577 7.14868 18.071C7.13936 18.0826 7.12796 18.0966 7.12134 18.1091V18.1101C6.93156 18.4804 6.9694 18.8755 7.22095 19.2234H7.22192C7.31666 19.3536 7.457 19.4615 7.60962 19.533C7.72392 19.5865 7.84826 19.6215 7.96899 19.6296L8.08813 19.6287L8.08911 19.6277C8.11167 19.6253 8.14322 19.6182 8.17896 19.6082C8.21644 19.5976 8.26396 19.5825 8.31958 19.5642C8.43087 19.5276 8.57924 19.4755 8.75806 19.4099C9.11603 19.2786 9.59993 19.0926 10.1672 18.8669L11.9954 18.1394L13.0637 18.5623C13.4017 18.6957 13.6892 18.8023 13.9006 18.8748C14.0059 18.9108 14.0934 18.9384 14.1594 18.9568C14.1923 18.9659 14.221 18.9737 14.2444 18.9783C14.2639 18.9821 14.2886 18.9853 14.3098 18.9832H14.3118C14.5278 18.9604 14.6776 18.7295 14.6301 18.5183L14.6292 18.5193C14.6204 18.4757 14.6102 18.4266 14.5686 18.3777C14.5297 18.332 14.4685 18.2918 14.3752 18.2449C14.1876 18.1505 13.8295 18.0091 13.136 17.7351L12.0276 17.2966L12.0002 17.2859L11.9719 17.2966L10.0178 18.074C9.47873 18.2866 8.98109 18.4798 8.61353 18.6199C8.4298 18.6899 8.27885 18.7468 8.17114 18.7859C8.1172 18.8055 8.07436 18.8208 8.04419 18.8308C8.02914 18.8358 8.01775 18.8393 8.01001 18.8416L8.00903 18.8425C8.00114 18.8417 7.9874 18.8379 7.96802 18.8279C7.94616 18.8166 7.92166 18.7992 7.89771 18.7781C7.84941 18.7354 7.81166 18.684 7.79712 18.6433C7.79524 18.635 7.79407 18.613 7.80005 18.5808C7.80591 18.5494 7.81644 18.5171 7.82935 18.4929C7.82726 18.4968 7.82813 18.4952 7.83813 18.4832C7.84624 18.4734 7.85821 18.4599 7.87329 18.4431C7.90359 18.4093 7.94679 18.3632 8.00122 18.3054C8.11039 18.1896 8.26452 18.0287 8.45239 17.8357C8.82805 17.4498 9.33791 16.9336 9.89185 16.3796L11.0022 15.2781C11.2817 15.0027 11.4797 14.8109 11.6233 14.6775C11.7675 14.5435 11.8533 14.4709 11.9104 14.4324C11.9644 14.3959 11.9852 14.3953 12.0002 14.3953C12.0153 14.3953 12.0361 14.3959 12.0901 14.4324C12.1471 14.4709 12.233 14.5435 12.3772 14.6775C12.6644 14.9444 13.1694 15.4447 14.1086 16.3796L15.5481 17.8367C15.7359 18.0298 15.8902 18.1901 15.9993 18.3064C16.0539 18.3646 16.0969 18.4119 16.1272 18.446C16.1421 18.4629 16.1534 18.4763 16.1614 18.4861C16.1711 18.498 16.1721 18.4998 16.1702 18.4958L16.1711 18.4978C16.2308 18.6077 16.1902 18.7438 16.0647 18.8123L16.0178 18.8318C16.0038 18.8351 15.9893 18.8353 15.9719 18.8337C15.9289 18.8297 15.8664 18.8122 15.7493 18.7732C15.6051 18.7251 15.4865 18.7013 15.386 18.7136C15.2793 18.7267 15.2007 18.7798 15.137 18.864V18.865C15.0905 18.925 15.0651 18.9914 15.0637 19.0613C15.0624 19.1314 15.0849 19.1988 15.1252 19.2595C15.205 19.3794 15.3558 19.4793 15.551 19.5466C15.7165 19.604 15.8572 19.6345 15.9934 19.6316Z" fill="#AAAAAA" stroke="#AAAAAA" stroke-width="0.15"/>
<path d="M11.2529 22.8872C12.0736 23.2949 13.0844 22.9753 13.4941 22.1392H13.4932C13.5599 22.0058 13.6002 21.9181 13.6211 21.811C13.6415 21.7065 13.6436 21.5859 13.6436 21.3882C13.6436 21.1904 13.6415 21.0699 13.6211 20.9653C13.6002 20.8584 13.5597 20.7712 13.4932 20.6382C13.3135 20.2744 12.9863 19.9687 12.6279 19.8325C12.2824 19.698 11.8227 19.6782 11.5 19.7827H11.499C11.0417 19.9352 10.7135 20.2199 10.4814 20.6616V20.6606C10.4262 20.7623 10.3926 20.8364 10.375 20.9429C10.3582 21.0447 10.3564 21.1752 10.3564 21.3882C10.3564 21.603 10.3583 21.7322 10.375 21.8335C10.3925 21.9393 10.4267 22.0135 10.4814 22.1187V22.1196C10.6417 22.4222 10.8308 22.6299 11.0918 22.7964L11.2529 22.8872ZM12 22.2798C11.8757 22.2798 11.7321 22.2385 11.5977 22.1665C11.4634 22.0946 11.3436 21.9955 11.2656 21.8862C11.2068 21.8042 11.1826 21.7601 11.1689 21.7017C11.1541 21.6382 11.1514 21.554 11.1514 21.3882C11.1514 21.2224 11.1541 21.1382 11.1689 21.0747C11.1826 21.0163 11.2068 20.9721 11.2656 20.8901H11.2666C11.3223 20.811 11.4056 20.7304 11.501 20.6665L11.5996 20.6089L11.6006 20.6079C11.7453 20.5325 11.8742 20.4976 12 20.4976C12.1258 20.4976 12.2547 20.5325 12.3994 20.6079L12.4004 20.6089C12.5358 20.6766 12.6592 20.7847 12.7334 20.8901H12.7344C12.7932 20.9721 12.8174 21.0163 12.8311 21.0747C12.8459 21.1382 12.8486 21.2224 12.8486 21.3882C12.8486 21.554 12.8459 21.6382 12.8311 21.7017C12.8174 21.7601 12.7932 21.8042 12.7344 21.8862C12.6564 21.9955 12.5366 22.0946 12.4023 22.1665C12.2679 22.2385 12.1243 22.2798 12 22.2798Z" fill="#AAAAAA" stroke="#AAAAAA" stroke-width="0.15"/>
</g>
<defs>
<clipPath id="clip0_117_752">
<rect width="22" height="22" fill="white" transform="translate(1 0.999512)"/>
</clipPath>
</defs>
</svg>
